<?xml version="1.0" standalone="no"?>
<!DOCTYPE svg PUBLIC "-//W3C//DTD SVG 1.1//EN" "http://www.w3.org/Graphics/SVG/1.1/DTD/svg11.dtd" >
<svg xmlns="http://www.w3.org/2000/svg">
<metadata></metadata>
<defs>
<font id="grotesqueno9tregular" horiz-adv-x="913" >
<font-face units-per-em="2048" ascent="1698" descent="-350" />
<missing-glyph horiz-adv-x="492" />
<glyph horiz-adv-x="0" />
<glyph horiz-adv-x="682" />
<glyph unicode=" "  horiz-adv-x="492" />
<glyph unicode="&#x09;" horiz-adv-x="492" />
<glyph unicode="&#xa0;" horiz-adv-x="492" />
<glyph unicode="!" horiz-adv-x="459" d="M96 0v334h268v-334h-268zM96 981v384h268v-384l-90 -565h-93z" />
<glyph unicode="&#x22;" horiz-adv-x="765" d="M96 1153v212h239v-212l-88 -259h-68zM430 1153v212h239v-212l-88 -259h-68z" />
<glyph unicode="#" d="M-1 450l23 164h150l23 164h-150l23 164h150l59 423h198l-59 -423h150l59 423h198l-59 -423h150l-23 -164h-150l-23 -164h150l-23 -164h-150l-63 -450h-198l63 450h-150l-64 -450h-198l64 450h-150zM370 614h150l23 164h-150z" />
<glyph unicode="$" d="M54 1001q0 90 36.5 168.5t101.5 128.5q63 48 164 68v161h166v-161q282 -22 282 -266q0 -62 -17 -151l-219 -16q17 68 17 111q0 130 -139 130q-146 0 -146 -130q0 -62 39 -95q28 -24 136 -69q105 -43 156 -73t98 -75q132 -128 132 -334q0 -209 -131 -332q-80 -75 -208 -83 v-187h-166v187q-112 18 -170 61q-63 47 -97 130q-32 77 -32 162q0 67 26 149l222 12q-20 -56 -20 -106q0 -184 164 -184q146 0 146 156q0 62 -25 106q-22 38 -111 87q-25 14 -125 62q-280 134 -280 383z" />
<glyph unicode="%" horiz-adv-x="1269" d="M68 986q0 215 34 295q38 89 185 89q119 0 164 -69q45 -70 45 -296q0 -123 -10 -180q-18 -97 -89 -130q-47 -21 -122 -21q-127 0 -172 75q-35 59 -35 237zM217 0l681 1365h159l-679 -1365h-161zM235 1002q0 -151 3 -173q7 -41 41 -41q31 0 40 29q7 24 7 109q0 269 -8 306 q-6 32 -36 32q-33 0 -39 -34q-8 -42 -8 -228zM772 303q0 215 34 295q38 89 185 89q119 0 164 -69q45 -70 45 -296q0 -122 -10 -179q-18 -98 -89 -130q-47 -21 -122 -21q-127 0 -172 75q-35 59 -35 236zM939 268q1 -122 9 -140q8 -22 35 -22q31 0 40 29q7 24 7 109 q0 267 -8 305q-6 32 -36 32q-33 0 -39 -34q-8 -42 -8 -228v-51z" />
<glyph unicode="&#x26;" horiz-adv-x="1127" d="M41 376q0 204 130 358q58 70 159 129q-48 126 -48 218q0 164 104 243q77 60 191 60q150 0 227 -90q51 -59 51 -145q0 -98 -66 -176q-52 -61 -156 -110l107 -284q47 89 118 295l10 32h149q-36 -132 -83 -248q-17 -45 -123 -262l57 -135q18 -42 49 -42q41 0 41 55 q0 27 -25 182h154q27 -120 27 -220q0 -261 -256 -261q-89 0 -144 47q-37 32 -81 103q-70 -82 -116 -111q-65 -42 -145 -42q-137 0 -231 111q-100 118 -100 293zM308 513q0 -121 56 -210q47 -76 99 -76q47 0 90 59l-165 421q-80 -85 -80 -194zM529 1169q0 -28 9 -54l42 -119 q88 54 88 140q0 48 -21 77q-22 31 -56 31q-62 0 -62 -75z" />
<glyph unicode="'" horiz-adv-x="430" d="M96 1153v212h239v-212l-88 -259h-68z" />
<glyph unicode="(" horiz-adv-x="669" d="M82 525q0 405 246 679q138 153 314 209q-109 -98 -168 -202q-73 -127 -112 -304.5t-39 -383.5q0 -319 83 -558q53 -151 147 -257q29 -33 89 -86q-111 42 -176 83.5t-127 108.5q-118 126 -185 302q-72 187 -72 409z" />
<glyph unicode=")" horiz-adv-x="669" d="M27 -378q109 98 168 202q151 262 151 687q0 206 -37.5 388.5t-105.5 305.5q-55 100 -176 208q110 -43 175.5 -84t127.5 -108q118 -126 185 -302q72 -188 72 -409q0 -405 -246 -679q-138 -153 -314 -209z" />
<glyph unicode="*" horiz-adv-x="874" d="M109 1053l70 214l168 -83l-19 181h227l-27 -181l165 68l72 -220l-186 -27l122 -131l-181 -132l-88 165l-90 -164l-180 131l128 145z" />
<glyph unicode="+" d="M95 588v218h253v252h218v-252h253v-218h-253v-253h-218v253h-253z" />
<glyph unicode="," horiz-adv-x="432" d="M82 0v324h268v-286q-4 -138 -66 -212h-172q86 65 86 152q0 7 -1 22h-115z" />
<glyph unicode="-" horiz-adv-x="395" d="M0 409v219h395v-219h-395z" />
<glyph unicode="." horiz-adv-x="432" d="M82 0v328h268v-328h-268z" />
<glyph unicode="/" horiz-adv-x="724" d="M-61 -389l613 1754h159l-611 -1754h-161z" />
<glyph unicode="0" d="M53 610q0 359 39 512q32 123 104 181q90 71 270 71q117 0 191 -32.5t117 -103.5q45 -73 65.5 -215t20.5 -382q0 -246 -20 -359q-23 -135 -88 -201q-95 -98 -309 -98q-242 0 -324 147q-43 76 -57 223q-9 89 -9 257zM353 753q0 -398 5 -450q12 -112 93 -112q67 0 87 67 q15 50 15 220q0 551 -15 629q-15 75 -82 75q-72 0 -86 -77q-17 -91 -17 -352z" />
<glyph unicode="1" d="M108 949v174q132 -5 254 77q59 40 138 165h185v-1365h-286v949h-291z" />
<glyph unicode="2" d="M75 0v206q117 116 239 280q134 182 188 313q38 92 38 208q0 72 -26 123q-26 50 -75 50q-95 0 -95 -185q0 -89 25 -219l-262 11q-28 79 -28 225q0 143 55 233q79 131 311 131q164 0 259 -74q136 -107 136 -305q0 -229 -187 -461q-10 -13 -248 -264h423v-272h-753z" />
<glyph unicode="3" d="M64 304q0 83 26 169l257 9q-2 -23 -3 -30q-13 -98 -13 -140q0 -43 18 -75q26 -44 79 -44q57 0 78 62q18 50 18 163q0 138 -33 204t-101 66q-50 0 -114 -35l-107 126l307 342h-351v244h666v-224l-249 -279q66 -12 100 -26q82 -32 134 -130q60 -112 60 -300 q0 -242 -115 -340q-96 -83 -287 -83q-370 0 -370 321z" />
<glyph unicode="4" horiz-adv-x="914" d="M60 271v294l370 800h296v-884h141v-210h-141v-271h-277v271h-389zM233 481h216v472z" />
<glyph unicode="5" d="M67 285q0 82 37 191l240 7q-19 -82 -19 -151q0 -83 35 -118q26 -25 58 -25q59 0 89 77t30 227q0 242 -97 242q-65 0 -107 -115l-229 28l58 717h592l-20 -265h-376l-14 -211q92 47 167 47q180 0 269 -149q66 -110 66 -293q0 -130 -31.5 -236t-88.5 -168 q-98 -107 -293 -107q-138 0 -233 58q-133 82 -133 244z" />
<glyph unicode="6" d="M66 628q0 323 39 465q42 155 124 213q93 66 252 66q189 0 273 -99q63 -74 63 -183q0 -55 -17 -136h-245q10 49 10 97q0 134 -97 134q-78 0 -100 -107q-14 -71 -15 -276q54 40 96 52q37 11 80 11q158 0 238.5 -109t80.5 -323q0 -193 -53 -284q-96 -166 -325 -166 q-188 0 -280 99q-64 68 -92 170q-32 117 -32 376zM357 433q0 -155 33 -212q25 -44 75 -44q98 0 98 217q0 162 -33 229q-23 47 -74 47q-41 0 -65 -34q-34 -50 -34 -203z" />
<glyph unicode="7" d="M60 1100v265h780v-217q-118 -197 -171 -329q-107 -267 -107 -590q0 -89 9 -229h-328q0 131 7 251q26 421 336 849h-526z" />
<glyph unicode="8" d="M73 359q0 188 71 285q25 34 92 71q-70 39 -98 87q-45 79 -45 197q0 374 360 374q186 0 277 -94t91 -286q0 -135 -55 -208q-24 -32 -85 -70q58 -35 85 -69q75 -94 75 -278q0 -385 -386 -385q-382 0 -382 376zM359 365q0 -121 33 -160q22 -27 63 -27q50 0 73 34 q29 41 29 170q0 137 -25 186q-23 44 -74 44q-46 0 -69 -35q-30 -44 -30 -212zM375 1005q0 -129 18 -168q17 -35 63 -35q52 0 69 45q15 40 15 138q0 110 -18 155q-18 43 -64 43q-38 0 -56 -23q-27 -33 -27 -155z" />
<glyph unicode="9" d="M67 941q0 219 94.5 327t286.5 108q200 0 280 -101q86 -109 104 -303q14 -144 14 -302q0 -383 -75 -520q-55 -99 -166 -141q-70 -26 -151 -26q-146 0 -250 68q-109 70 -109 225q0 60 25 138l245 7q-14 -79 -14 -108q0 -129 90 -129q92 0 113 143q6 42 10 225 q-83 -51 -171 -51q-170 0 -258 135q-68 106 -68 305zM348 938q0 -138 24 -188t82 -50q55 0 78 44q25 48 25 195q0 182 -46 224q-23 22 -63 22q-45 0 -68 -39q-32 -52 -32 -208z" />
<glyph unicode=":" horiz-adv-x="432" d="M82 0v328h268v-328h-268zM82 676v328h268v-328h-268z" />
<glyph unicode=";" horiz-adv-x="432" d="M82 0v324h268v-286q-4 -138 -66 -212h-172q86 65 86 152q0 7 -1 22h-115zM82 676v328h268v-328h-268z" />
<glyph unicode="&#x3c;" horiz-adv-x="1024" d="M68 556v256l887 465v-304l-564 -290l564 -291v-303z" />
<glyph unicode="=" d="M95 396v218h724v-218h-724zM95 779v218h724v-218h-724z" />
<glyph unicode="&#x3e;" horiz-adv-x="1024" d="M69 89v303l564 291l-564 290v304l887 -466v-255z" />
<glyph unicode="?" horiz-adv-x="769" d="M96 1134q0 130 87 198q65 50 187 50q189 0 265 -95q94 -117 94 -371q0 -199 -73 -292q-58 -74 -178 -74q-76 0 -152 70v-206h-176v475h176q2 -55 9 -84q13 -58 56 -58q40 0 55 53q8 31 8 117q0 182 -23 234q-16 39 -56 39q-69 0 -65 -118q1 -34 1 -44q0 -7 -1 -24h-204 q-10 78 -10 130zM105 0v331h266v-331h-266z" />
<glyph unicode="@" horiz-adv-x="1442" d="M79 646q0 159 63 302.5t179 248.5q207 188 476 188q256 0 421 -177q144 -154 144 -373q0 -246 -174 -403q-121 -109 -279 -109q-144 0 -174 103q-59 -103 -150 -103q-59 0 -102 42q-60 56 -60 178q0 201 82 361q66 131 191 131q82 0 111 -96l12 85h206l-57 -402 q-9 -64 -9 -92q0 -38 39 -38q61 0 126 90q81 112 81 248q0 178 -128 295q-112 103 -277 103q-120 0 -231 -51t-192 -144q-141 -162 -141 -384q0 -210 132 -356q143 -157 361 -157q137 0 275 78l60 -147q-172 -88 -338 -88q-153 0 -287.5 66.5t-225.5 188.5 q-134 179 -134 412zM628 564q0 -72 43 -72q40 0 62 55q41 107 41 244q0 94 -50 94q-42 0 -64 -94q-32 -135 -32 -227z" />
<glyph unicode="A" horiz-adv-x="828" d="M-14 0l264 1365h308l284 -1365h-323l-35 244h-200l-34 -244h-264zM310 430h147l-75 512z" />
<glyph unicode="B" horiz-adv-x="940" d="M89 0v1365h394q111 0 169 -17q99 -29 153 -121q59 -100 59 -244q0 -148 -69 -207q-36 -30 -114 -53q95 -28 142 -83q77 -90 77 -275q0 -195 -89 -282q-63 -61 -169 -77q-40 -6 -114 -6h-439zM396 241q85 0 111 5q78 15 78 146q0 106 -23 155t-92 49h-74v-355zM396 810h49 h5q70 0 91 28q25 31 25 118q0 90 -24 134q-27 48 -94 48h-52v-328z" />
<glyph unicode="C" horiz-adv-x="917" d="M55 586q0 309 32 467q37 182 131 257q102 80 270 80q184 0 281 -93q45 -43 65.5 -114t20.5 -184q0 -95 -17 -169l-268 -9q7 91 7 153q0 112 -23 156q-22 41 -68 41q-66 0 -84 -80q-22 -102 -22 -432q0 -263 26 -344q25 -80 95 -80q53 0 78 40t25 125q0 101 -13 213 l266 -10q20 -121 20 -223q0 -191 -79 -289q-94 -118 -303 -118q-213 0 -318 114q-64 70 -93 187.5t-29 311.5z" />
<glyph unicode="D" horiz-adv-x="979" d="M89 0v1365h334q145 0 200 -17q126 -38 200 -168q47 -84 74.5 -234.5t27.5 -325.5q0 -413 -146 -545q-83 -75 -272 -75h-418zM397 233q29 -1 47 -1q88 0 123 59q39 65 39 311q0 355 -47 470q-28 65 -102 70q-24 1 -60 1v-910z" />
<glyph unicode="E" horiz-adv-x="849" d="M89 0v1365h705v-264h-392v-291h343v-246h-343v-308h413v-256h-726z" />
<glyph unicode="F" horiz-adv-x="782" d="M89 0v1365h672v-263h-355v-315h328v-245h-328v-542h-317z" />
<glyph unicode="G" horiz-adv-x="956" d="M55 637q0 316 49 466q95 289 384 289q184 0 284 -108q94 -103 94 -283q0 -89 -22 -169l-261 -11q9 59 9 119q0 222 -103 222q-55 0 -83 -68q-30 -75 -30 -441q0 -311 44 -378q31 -46 86 -46q57 0 87 46q23 36 23 116v119h-127v187h399v-697h-168l-37 90q-33 -50 -66 -71 q-72 -46 -179 -46q-89 0 -165.5 38t-124.5 106q-51 72 -71 177q-22 117 -22 343z" />
<glyph unicode="H" horiz-adv-x="979" d="M89 0v1365h309v-515h182v515h310v-1365h-310v658h-182v-658h-309z" />
<glyph unicode="I" horiz-adv-x="493" d="M89 0v1365h315v-1365h-315z" />
<glyph unicode="J" horiz-adv-x="825" d="M0 366q0 116 38 247l256 9q-22 -119 -22 -211q0 -111 42 -155q22 -24 48 -24q43 0 54 53q10 51 10 139v941h317v-978q0 -147 -29 -214q-42 -99 -146 -153q-90 -47 -208 -47q-137 0 -226 71q-134 107 -134 322z" />
<glyph unicode="K" horiz-adv-x="917" d="M89 0v1365h314v-509l203 509h302l-261 -589l297 -776h-329l-212 603v-603h-314z" />
<glyph unicode="L" horiz-adv-x="795" d="M89 0v1365h313v-1098h366v-267h-679z" />
<glyph unicode="M" horiz-adv-x="1242" d="M89 0v1365h391l142 -648l105 648h427v-1365h-296v935l-160 -935h-189l-165 935v-935h-255z" />
<glyph unicode="N" horiz-adv-x="952" d="M89 0v1365h252l264 -595v595h259v-1365h-211l-312 717v-717h-252z" />
<glyph unicode="O" horiz-adv-x="965" d="M54 600q0 325 52 489q93 294 381 294q153 0 265 -98q93 -81 128 -238q31 -135 31 -415q0 -261 -44 -382q-100 -277 -383 -277q-165 0 -266 86q-96 81 -128 208q-36 146 -36 333zM378 676q0 -340 20 -400t82 -60q61 0 82 63q26 77 26 433q0 292 -10 354q-15 100 -93 100 q-52 0 -74 -43q-18 -35 -25.5 -137.5t-7.5 -309.5z" />
<glyph unicode="P" horiz-adv-x="944" d="M89 0v1365h419q83 0 126 -8t83 -30q195 -111 195 -413q0 -212 -82 -304q-85 -96 -251 -96h-184v-514h-306zM395 721h66q70 0 93 21q43 39 43 192q0 144 -39 190q-29 33 -102 33h-61v-436z" />
<glyph unicode="Q" horiz-adv-x="962" d="M55 624q0 359 61 509q102 250 361 250q100 0 183.5 -36.5t133.5 -101.5q70 -92 89 -218q25 -161 25 -368q0 -303 -48 -431q-50 -137 -156 -198q-40 -23 -139 -49v-19q0 -90 67 -90q43 0 56 31q7 16 7 65h171q6 -51 6 -90q0 -104 -75 -154q-59 -40 -170 -40 q-157 0 -215 90q-45 70 -45 182v25q-148 39 -221 159q-52 85 -73 203q-18 98 -18 281zM380 712q0 -329 7 -385q13 -116 92 -116q66 0 87 66q19 61 19 345q0 384 -8 445q-13 102 -93 102q-22 0 -43.5 -12.5t-31.5 -30.5q-19 -35 -22 -90q-7 -140 -7 -324z" />
<glyph unicode="R" horiz-adv-x="939" d="M89 0v1365h368q128 0 165 -8q105 -24 169 -99q47 -55 73.5 -140t26.5 -182q0 -191 -88 -263q-43 -36 -131 -50q85 -41 123 -102q38 -65 54 -186q4 -40 13 -134q9 -77 27 -201h-311q-10 41 -14 88q-2 31 -2 206q-2 155 -22 192q-21 42 -89 43h-55v-529h-307zM396 733 q79 0 104 4q55 10 69 75q10 46 10 119q0 143 -36 188q-28 35 -92 35h-55v-421z" />
<glyph unicode="S" horiz-adv-x="901" d="M40 341q0 76 29 139h249q-17 -50 -17 -99q0 -92 42 -132q33 -32 84 -32q65 0 101 50q29 40 29 97q0 74 -49 125q-33 35 -142 90q-186 93 -251 188q-72 103 -72 238q0 162 103 268q107 110 296 110q212 0 303 -131q50 -71 50 -174q0 -67 -25 -143h-248q21 62 21 111 q0 61 -34 93q-30 29 -70 29q-48 0 -81 -38q-27 -32 -27 -87q0 -64 40 -106q31 -32 115 -66q154 -64 213 -108q161 -121 161 -340q0 -270 -170 -378q-114 -72 -253 -72q-171 0 -288 100q-109 93 -109 268z" />
<glyph unicode="T" horiz-adv-x="827" d="M0 1103v262h827v-262h-257v-1103h-315v1103h-255z" />
<glyph unicode="U" horiz-adv-x="980" d="M82 487v878h323v-934q0 -113 29 -146q27 -31 67 -31q50 0 77 46q16 29 16 126v939h304v-885q0 -186 -13 -241q-29 -125 -142 -197q-109 -69 -254 -69q-178 0 -297 100q-91 78 -105 214q-5 48 -5 200z" />
<glyph unicode="V" horiz-adv-x="837" d="M-14 1365h326l148 -839l132 839h258l-258 -1365h-312z" />
<glyph unicode="W" horiz-adv-x="1209" d="M-7 1365h295l128 -650l93 650h244l88 -650l120 650h255l-243 -1365h-247l-114 766l-81 -766h-243z" />
<glyph unicode="X" horiz-adv-x="896" d="M0 0l256 735l-256 630h327l119 -367l119 367h262l-198 -630l267 -735h-331l-148 470l-149 -470h-268z" />
<glyph unicode="Y" horiz-adv-x="871" d="M-14 1365h303l172 -516l152 516h271l-282 -844v-521h-313v521z" />
<glyph unicode="Z" horiz-adv-x="852" d="M44 0v335l478 775h-419v255h702v-366l-454 -740h454v-259h-761z" />
<glyph unicode="[" horiz-adv-x="505" d="M82 -351v1737h396v-150h-174v-1437h174v-150h-396z" />
<glyph unicode="\" horiz-adv-x="724" d="M14 1365h159l613 -1754h-161z" />
<glyph unicode="]" horiz-adv-x="505" d="M27 -201h174v1437h-174v150h396v-1737h-396v150z" />
<glyph unicode="^" horiz-adv-x="1024" d="M31 718l311 655h339l311 -655h-270l-210 449l-211 -449h-270z" />
<glyph unicode="_" horiz-adv-x="1024" d="M0 -123h1024v-218h-1024v218z" />
<glyph unicode="`" horiz-adv-x="1024" d="M238 1358h267l90 -217h-136z" />
<glyph unicode="a" horiz-adv-x="886" d="M48 276q0 167 91 242q54 45 201 77q112 24 140 54q26 28 26 89q0 122 -90 122q-37 0 -67 -27q-28 -26 -28 -85q0 -37 14 -80h-242q-17 85 -17 129q0 96 73 152q94 72 271 72q148 0 252 -48q97 -44 109 -135q3 -28 3 -122v-431q0 -58 18 -77q15 -16 45 -16q8 0 29 4v-177 q-79 -44 -166 -44q-106 0 -155 65q-14 18 -44 76q-74 -143 -218 -143q-98 0 -162 67q-83 87 -83 236zM333 283q0 -58 25 -82q20 -20 46 -20q35 0 66 39q41 50 41 135v155q-29 -18 -59 -31q-54 -24 -69 -37q-50 -42 -50 -159z" />
<glyph unicode="b" horiz-adv-x="899" d="M82 0v1365h278v-496q74 151 186 151q133 0 216 -129q89 -138 89 -417q0 -284 -110 -409q-80 -92 -219 -92q-124 0 -192 69q-30 30 -61 102l-54 -144h-133zM371 468q0 -157 25 -224q22 -58 73 -58q49 0 66 55q22 66 22 225q0 241 -38 310q-16 30 -51 30q-49 0 -73 -83 t-24 -255z" />
<glyph unicode="c" horiz-adv-x="806" d="M47 460q0 247 56 367q92 198 325 198q143 0 232 -77q95 -84 95 -240q0 -46 -10 -112l-242 -16q9 52 9 105q0 151 -84 151q-43 0 -61 -39q-35 -76 -35 -328q0 -182 30 -243q24 -50 79 -50q95 0 95 163q0 44 -8 109l227 -10q17 -73 17 -141q0 -114 -36 -176 q-86 -149 -305 -149q-174 0 -272 98q-59 60 -85 144q-27 89 -27 246z" />
<glyph unicode="d" horiz-adv-x="885" d="M48 461q0 305 91 446q73 114 199 114q81 0 130 -56q29 -33 53 -87v487h282v-1365h-282v124q-35 -65 -55 -89q-53 -62 -142 -62q-117 0 -195 114q-81 118 -81 374zM329 487q0 -144 17 -217q16 -68 68 -68q60 0 80 87q19 87 19 222q0 309 -102 309q-41 0 -57 -51 q-25 -86 -25 -282z" />
<glyph unicode="e" horiz-adv-x="821" d="M48 477q0 263 76 383q59 94 158 135q70 28 142 28q92 0 168 -42q111 -63 147 -216q31 -133 31 -260q0 -23 -2 -71h-432q1 -140 9 -172q23 -81 103 -81q96 0 96 111q0 23 -2 62h226q2 -35 3 -45q3 -42 3 -70q0 -64 -29.5 -120t-79.5 -87q-94 -59 -242 -59q-203 0 -296 115 q-79 99 -79 389zM337 586h169q1 15 1 20q0 119 -29 196q-16 43 -60 43q-58 0 -72 -95q-6 -40 -9 -164z" />
<glyph unicode="f" horiz-adv-x="565" d="M-14 843v161h135q-2 21 -2 28q-9 88 -9 118q0 66 30.5 122t83.5 86q66 38 169 38q126 0 193 -51t67 -148q0 -39 -9 -97l-185 -7q13 47 13 70q0 38 -17 66q-15 24 -41 24q-60 0 -60 -85q0 -61 35 -164h187v-161h-179v-843h-276v843h-135z" />
<glyph unicode="g" horiz-adv-x="821" d="M38 -126q0 29 20 58.5t52 47.5q29 16 90 39q-77 34 -113.5 80.5t-36.5 110.5q0 123 172 195q-68 47 -100 88q-60 77 -60 186q0 77 30.5 148.5t82.5 116.5q92 80 235 80q65 0 129 -22l38 194h215l-169 -227q150 -105 150 -285q0 -155 -94 -243q-88 -81 -242 -81 q-40 0 -92 8q-59 -37 -59 -73q0 -51 113 -51h9q66 1 81 1q190 0 268 -73q35 -33 57 -89.5t22 -113.5q0 -62 -26.5 -119.5t-70.5 -92.5q-102 -80 -317 -80q-161 0 -261 41q-53 21 -89 67q-34 43 -34 89zM260 -86q0 -37 37 -63q48 -35 126 -35q92 0 137 43q27 27 27 62 q0 68 -75 81q-50 9 -209 9q-43 -51 -43 -97zM326 685q0 -93 23 -135q21 -37 67 -37t67 37q20 37 20 135q0 124 -32 165q-19 25 -55 25q-90 0 -90 -190z" />
<glyph unicode="h" horiz-adv-x="888" d="M82 0v1365h280v-509q42 80 82 117q62 56 141 56q131 0 196 -125q15 -29 18 -43q14 -59 14 -204v-657h-277v569q0 128 -15 164q-19 45 -59 45q-55 0 -82 -78q-18 -53 -18 -198v-502h-280z" />
<glyph unicode="i" horiz-adv-x="451" d="M82 0v1004h287v-1004h-287zM82 1112v253h287v-253h-287z" />
<glyph unicode="j" horiz-adv-x="453" d="M-123 -141q0 48 17 111l153 13q-9 -57 -9 -79q0 -33 13 -59q15 -28 41 -28q30 0 46 31q10 19 10 48q0 47 -27 115q-29 72 -26 78q-3 18 -3 74v841h280v-834q0 -53 5 -122q6 -82 6 -123q0 -104 -51 -166q-68 -85 -221 -85q-113 0 -174 52q-60 51 -60 133zM92 1112v253h280 v-253h-280z" />
<glyph unicode="k" horiz-adv-x="870" d="M82 0v1365h280v-758l200 397h280l-194 -342l231 -662h-303l-101 409l-113 -171v-238h-280z" />
<glyph unicode="l" horiz-adv-x="451" d="M82 0v1365h287v-1365h-287z" />
<glyph unicode="m" horiz-adv-x="1342" d="M82 0v1004h280v-149q54 94 85 121q60 53 145 53q82 0 155 -71q32 -32 64 -117q46 91 92 130q65 55 146 55q60 0 116 -38q59 -39 85 -124q17 -55 17 -191v-673h-279v555q0 147 -16 188q-17 41 -56 41q-49 0 -79 -70q-26 -63 -26 -191v-523h-275v571q0 142 -20 178 q-19 34 -53 34q-44 0 -72 -58q-29 -61 -29 -181v-544h-280z" />
<glyph unicode="n" horiz-adv-x="890" d="M82 0v1004h283v-144q40 78 79 114q58 53 138 53q111 0 175 -89q58 -81 58 -241v-697h-281v580q0 134 -21 165q-22 32 -51 32q-20 0 -42 -17t-33 -41q-22 -51 -22 -157v-562h-283z" />
<glyph unicode="o" horiz-adv-x="848" d="M48 480q0 166 49 302q54 148 159 201q69 35 178 35q367 0 367 -561q0 -255 -87 -371q-85 -113 -274 -113q-216 0 -306 127q-41 57 -64 164q-22 103 -22 216zM340 502q0 -225 20 -284q17 -48 68 -48q50 0 66 47q17 49 17 248q0 259 -29 320q-18 40 -58 40q-38 0 -57 -39 q-27 -58 -27 -284z" />
<glyph unicode="p" horiz-adv-x="884" d="M82 -330v1334h282v-157q29 98 74 137q48 42 116 42q119 0 190 -116q92 -149 92 -440q0 -484 -269 -484q-83 0 -133 50q-40 39 -70 140v-506h-282zM369 540q0 -215 36 -294q21 -46 63 -46q20 0 38 15.5t25 38.5q18 56 18 210q0 115 -9.5 208.5t-23.5 121.5q-16 34 -53 34 q-94 0 -94 -288z" />
<glyph unicode="q" horiz-adv-x="890" d="M47 430q0 229 63 380q47 113 140 176q64 43 147 43q152 0 234 -157l45 132h132v-1334h-281v452q-36 -65 -69 -93q-52 -46 -125 -46q-109 0 -172 67q-114 119 -114 380zM336 477q0 -135 23 -214q18 -59 67 -59t67 55q29 86 29 260q0 176 -29 248q-22 53 -68 53 q-41 0 -57 -43q-32 -87 -32 -300z" />
<glyph unicode="r" horiz-adv-x="734" d="M82 0v1004h278v-168q37 98 69 132q59 61 126 61q79 0 131 -68q48 -63 48 -173q0 -130 -19 -231l-233 -30q14 84 14 153q0 93 -50 93q-29 0 -52 -37q-34 -55 -34 -164v-572h-278z" />
<glyph unicode="s" horiz-adv-x="804" d="M48 713q0 139 91 226q95 89 256 89q156 0 244 -72q70 -58 70 -172q0 -44 -14 -99h-218q7 40 7 64q0 92 -86 92q-41 0 -64 -24q-25 -26 -25 -69q0 -54 42 -82q31 -20 129 -47q169 -46 227 -115q57 -67 57 -191q0 -180 -107 -266q-94 -74 -257 -74q-174 0 -272 81 q-72 59 -72 176q0 51 14 110h223q-7 -39 -7 -64q0 -50 20 -80q27 -38 82 -38q42 0 70 27t28 65q0 44 -20 77q-15 26 -40 38q-46 22 -133 48q-245 73 -245 300z" />
<glyph unicode="t" horiz-adv-x="600" d="M0 843v161h134v255h269v-255h180v-161h-180v-454q0 -105 12 -136q19 -50 86 -50q55 0 105 26v-203q-87 -53 -225 -53q-128 0 -190 68q-31 33 -44 85t-13 140v577h-134z" />
<glyph unicode="u" horiz-adv-x="888" d="M75 262v742h280v-642q0 -139 73 -139q96 0 96 212v569h282v-1004h-282v135q-39 -71 -73 -104q-60 -58 -148 -58q-96 0 -163 81q-37 43 -50 86q-15 50 -15 122z" />
<glyph unicode="v" horiz-adv-x="749" d="M-8 1004h279l130 -607l107 607h250l-227 -1004h-260z" />
<glyph unicode="w" horiz-adv-x="1131" d="M-14 1004h250l128 -504l91 504h236l105 -514l115 514h233l-264 -1004h-203l-103 538l-106 -538h-213z" />
<glyph unicode="x" horiz-adv-x="777" d="M-27 0l275 526l-251 478h290l117 -259l115 259h239l-222 -478l268 -526h-308l-122 283l-126 -283h-275z" />
<glyph unicode="y" horiz-adv-x="768" d="M-8 1004h281l148 -629l101 629h255l-275 -1152q-24 -98 -86 -150q-61 -51 -181 -51q-115 0 -178 54q-54 47 -54 146q0 62 22 135l173 11q-19 -70 -19 -99t19 -46q15 -14 33 -14q25 0 40 22q19 27 34 109z" />
<glyph unicode="z" horiz-adv-x="749" d="M48 0v315l378 465h-331v224h620v-278l-412 -508h412v-218h-667z" />
<glyph unicode="{" horiz-adv-x="694" d="M61 442v151q50 9 85 49q29 36 30 135v310q1 159 67 226q52 50 130 64q44 9 152 9h82v-150h-27q-46 0 -82.5 -7.5t-51.5 -19.5q-32 -29 -35 -73q-3 -27 -3 -66v-303q-1 -107 -29 -159q-27 -52 -89 -91q62 -38 89 -90q28 -51 29 -159v-303q2 -88 13 -107q22 -39 67 -49 q43 -10 92 -10h27v-150h-82q-154 0 -219 29q-91 45 -116 140q-14 54 -14 130v310q-1 99 -30 135q-35 40 -85 49z" />
<glyph unicode="|" horiz-adv-x="1024" d="M359 -341v1706h307v-1706h-307z" />
<glyph unicode="}" horiz-adv-x="694" d="M86 -201h27q46 0 82 7.5t52 19.5q32 29 35 73q3 30 3 66v303q1 108 29 159q27 52 89 90q-62 39 -89 91q-28 51 -29 159v303q-2 89 -13 107q-22 39 -67 49q-43 10 -92 10h-27v150h82q152 0 219 -29q91 -44 116 -140q14 -54 14 -130v-310q1 -99 30 -135q35 -40 85 -49v-151 q-50 -9 -85 -49q-29 -36 -30 -135v-310q-1 -160 -68 -226q-52 -51 -129 -64q-45 -9 -152 -9h-82v150z" />
<glyph unicode="~" horiz-adv-x="1365" d="M190 1255q40 98 87 161q89 118 216 118q59 0 153 -38q38 -15 138 -58q59 -26 102 -26q76 0 145 127l149 -124q-48 -112 -94 -169q-88 -112 -211 -112q-47 0 -128 33q-49 19 -148 61q-73 30 -116 30q-54 0 -93 -49q-23 -28 -51 -78z" />
<glyph unicode="&#xa1;" horiz-adv-x="459" d="M96 23l90 565h93l85 -565v-385h-268v385zM96 670v334h268v-334h-268z" />
<glyph unicode="&#xa2;" d="M91 671q0 232 59 356q73 154 233 190v144h164v-144q103 -23 161 -74q94 -84 94 -243q0 -45 -9 -103l-246 -18q13 86 13 134q0 66 -28 94q-26 26 -60 26q-58 0 -75 -97q-16 -85 -16 -269q0 -192 29 -246q24 -44 80 -44q92 0 92 144q0 46 -8 125l230 -9q17 -89 17 -157 q0 -133 -79 -214q-57 -59 -132 -80q-21 -5 -63 -11v-158h-164v158q-108 24 -178 93q-59 57 -86.5 154t-27.5 249z" />
<glyph unicode="&#xa3;" horiz-adv-x="1105" d="M30 192q0 85 69 138q62 48 140 48q82 0 183 -38q5 34 5 66q0 78 -19 161h-267v166h206q-28 72 -44 117q-36 102 -36 197q0 172 105 261q103 88 277 88q160 0 258 -80q105 -85 105 -243q0 -79 -29 -190h-248q23 72 23 155q0 185 -99 185q-39 0 -63 -34q-29 -43 -29 -114 q0 -93 40 -260q7 -28 20 -82h274v-166h-243q-9 -92 -18 -129q-9 -43 -50 -146q88 -30 160 -30q91 0 91 119q0 25 -7 56l215 -12q26 -91 26 -162q0 -149 -77 -216q-74 -64 -170 -64q-88 0 -187 43q-58 26 -160 98q-129 -124 -244 -124q-92 0 -156 66q-51 53 -51 126zM172 191 q0 -23 22 -37q15 -10 38 -10q36 0 78 32q9 7 36 30q-70 41 -111 41q-24 0 -43 -16q-20 -17 -20 -40z" />
<glyph unicode="&#xa4;" d="M53 448l97 97q-35 77 -35 151q0 80 35 153l-97 97l154 154l98 -97q81 36 154 36q72 0 149 -36l97 97l155 -154l-97 -97q35 -76 35 -150q0 -78 -35 -154l97 -97l-155 -155l-96 97q-76 -35 -151 -35q-79 0 -153 36l-98 -98zM320 697q0 -53 35 -92q41 -45 102 -45 q55 0 95 39q41 40 41 98q0 56 -37 94q-42 43 -100 43q-50 0 -90 -34q-46 -39 -46 -103z" />
<glyph unicode="&#xa5;" d="M6 1365h307l173 -517l146 517h276l-155 -465h155v-138h-200l-37 -109h220v-137h-259v-516h-319v516h-272v137h226l-39 109h-203v138h152z" />
<glyph unicode="&#xa6;" horiz-adv-x="1024" d="M359 314h307v-655h-307v655zM359 646v719h307v-719h-307z" />
<glyph unicode="&#xa7;" horiz-adv-x="994" d="M89 562q0 127 82 211q22 24 67 60q-63 103 -63 222q0 185 121 271q85 60 223 60q171 0 248 -87q69 -77 69 -191q0 -49 -17 -126h-208q13 60 13 95q0 98 -106 98q-107 0 -107 -99q0 -49 40 -93q12 -12 83 -70l200 -164q103 -83 140 -140q52 -79 52 -184q0 -121 -73 -205 q-25 -28 -74 -67q66 -110 66 -218q0 -175 -99 -262q-92 -82 -258 -82q-167 0 -253 95q-75 82 -75 207q0 43 12 111h209q-9 -63 -9 -85q0 -56 35 -87q31 -28 87 -28q110 0 110 95q0 58 -44 107q-29 33 -91 82l-184 148q-105 84 -148 152q-48 76 -48 174zM267 638 q0 -43 70 -99l276 -223q33 -26 61 -56q71 38 71 92q0 30 -27 58q-6 6 -44 36l-278 227q-46 37 -59 52q-70 -39 -70 -87z" />
<glyph unicode="&#xa8;" horiz-adv-x="1024" d="M252 1172v193h195v-193h-195zM577 1172v193h195v-193h-195z" />
<glyph unicode="&#xa9;" horiz-adv-x="1473" d="M79 681q0 143 51 275t143 231q195 206 474 206q124 0 243 -54.5t211 -152.5q92 -100 142.5 -231t50.5 -273q0 -141 -50 -271.5t-142 -230.5q-93 -100 -213.5 -154t-250.5 -54t-250.5 53.5t-213.5 152.5q-93 100 -144 231.5t-51 271.5zM224 683q0 -241 152 -410 q151 -168 362 -168q212 0 361 169q150 169 150 407q0 242 -150 411q-150 168 -367 168q-97 0 -191 -44t-165 -123q-152 -169 -152 -410zM464 624q0 260 47 365q54 118 225 118q117 0 178 -56q54 -49 54 -179q0 -57 -10 -101l-170 -5q5 51 5 92q0 118 -57 118q-42 0 -53 -48 q-14 -61 -14 -260q0 -159 16 -207t60 -48q65 0 65 100q0 62 -8 128l167 -6q13 -70 13 -135q0 -244 -240 -244q-134 0 -201 68q-41 42 -59 113t-18 187z" />
<glyph unicode="&#xaa;" horiz-adv-x="592" d="M39 716q0 102 60 148q35 28 130 47q69 14 85 30q14 15 14 48q0 65 -50 65q-53 0 -53 -59q0 -23 11 -55h-167q-12 53 -12 84q0 60 49 94q61 44 175 44q164 0 217 -71q17 -23 19 -66v-50v-254q0 -32 9 -41q8 -7 24 -7q6 0 25 4v-117q-54 -29 -112 -29q-69 0 -102 41 q-9 10 -23 35q-47 -77 -138 -77q-64 0 -107 42q-54 52 -54 144zM232 720q0 -54 38 -54q19 0 37 20q24 28 24 76v80q-20 -10 -55 -24q-44 -19 -44 -98z" />
<glyph unicode="&#xab;" horiz-adv-x="699" d="M48 518l158 271h163l-156 -271l156 -269h-163zM331 518l158 271h162l-155 -271l155 -269h-162z" />
<glyph unicode="&#xac;" horiz-adv-x="1024" d="M68 327v267h887v-594h-298v327h-589z" />
<glyph unicode="&#xad;" horiz-adv-x="395" d="M0 409v219h395v-219h-395z" />
<glyph unicode="&#xae;" horiz-adv-x="1473" d="M79 681q0 143 51 275t143 231q195 206 474 206q124 0 243 -54.5t211 -152.5q92 -100 142.5 -231t50.5 -273q0 -141 -50 -271.5t-142 -230.5q-93 -100 -213.5 -154t-250.5 -54t-250.5 53.5t-213.5 152.5q-93 100 -144 231.5t-51 271.5zM224 683q0 -241 152 -410 q151 -168 362 -168q212 0 361 169q150 169 150 407q0 242 -150 411q-150 168 -367 168q-97 0 -191 -44t-165 -123q-152 -169 -152 -410zM504 273v819h232q81 0 104 -5q66 -14 107 -59q63 -71 63 -194q0 -115 -55 -158q-27 -21 -83 -30q53 -24 77 -61q24 -39 34 -111 q3 -24 8 -81q8 -54 17 -120h-195q-11 42 -11 176q-1 93 -13 115q-13 25 -56 26h-35v-317h-194zM698 712q50 0 65 3q35 6 44 45q6 28 6 71q0 85 -23 113q-17 21 -57 21h-35v-253z" />
<glyph unicode="&#xaf;" horiz-adv-x="1024" d="M0 1489v218h1024v-218h-1024z" />
<glyph unicode="&#xb0;" d="M150 1085q0 145 105 232q90 76 207 76q126 0 219 -97q83 -87 83 -209q0 -131 -92 -221q-89 -88 -214 -88q-137 0 -229 101q-79 87 -79 206zM341 1086q0 -45 30 -78q35 -38 86 -38q47 0 81 33q35 34 35 83q0 47 -31 79q-36 37 -85 37q-43 0 -76 -29q-40 -33 -40 -87z" />
<glyph unicode="&#xb1;" d="M95 225v218h724v-218h-724zM95 738v218h253v211h218v-211h253v-218h-253v-212h-218v212h-253z" />
<glyph unicode="&#xb2;" horiz-adv-x="600" d="M57 547v131q70 66 149 166q82 105 116 183q23 53 23 120q0 43 -15.5 69t-40.5 26q-52 0 -52 -102q0 -54 17 -136l-175 7q-20 49 -20 138q0 88 35 142q52 80 198 80q104 0 165 -45q87 -65 87 -185q0 -137 -117 -276q-15 -16 -142 -144h252v-174h-480z" />
<glyph unicode="&#xb3;" horiz-adv-x="600" d="M50 732q0 50 18 107l172 6l-3 -26q-8 -53 -8 -81q0 -64 53 -64q31 0 43 33q10 29 10 93q0 152 -76 152q-30 0 -72 -22l-74 83l183 195h-208v157h426v-142l-147 -157q89 -16 132 -82.5t43 -190.5q0 -147 -74 -207q-62 -50 -182 -50q-236 0 -236 196z" />
<glyph unicode="&#xb4;" horiz-adv-x="1024" d="M429 1141l90 217h267l-221 -217h-136z" />
<glyph unicode="&#xb5;" horiz-adv-x="888" d="M75 -330v1334h280v-642q0 -139 73 -139q96 0 96 212v569h282v-1004h-282v135q-36 -67 -73 -104q-44 -42 -117 -56v-305h-259z" />
<glyph unicode="&#xb6;" horiz-adv-x="1024" d="M30 914q0 232 106 349q57 63 122 86q46 16 150 16h530v-1695h-205v1504h-137v-1504h-205v844h-50q-158 0 -234.5 98t-76.5 302z" />
<glyph unicode="&#xb7;" horiz-adv-x="432" d="M82 355v328h268v-328h-268z" />
<glyph unicode="&#xb8;" horiz-adv-x="1024" d="M323 -301q0 24 11 57h135q-4 -29 -4 -45q0 -44 46 -44q56 0 56 88q0 80 -56 80q-27 0 -50 -25h-89l90 168h106l-57 -85q34 13 60 13q62 0 96 -44q34 -43 34 -109q0 -93 -68 -143q-58 -44 -137 -44q-99 0 -149 61q-24 29 -24 72z" />
<glyph unicode="&#xb9;" horiz-adv-x="600" d="M72 1106v116h16q76 0 144 44q34 23 86 99h125v-819h-191v560h-180z" />
<glyph unicode="&#xba;" horiz-adv-x="569" d="M40 836q0 100 31 181q35 89 104 122q45 21 115 21q238 0 238 -337q0 -153 -56 -223q-56 -69 -179 -69q-138 0 -197 77q-56 73 -56 228zM238 849q0 -132 12 -164q9 -24 37 -24q26 0 35 23q10 27 10 145q0 150 -17 184q-10 19 -30 19t-31 -19q-16 -32 -16 -164z" />
<glyph unicode="&#xbb;" horiz-adv-x="699" d="M48 249l155 271l-155 269h162l158 -269l-158 -271h-162zM330 249l156 271l-156 269h163l158 -269l-158 -271h-163z" />
<glyph unicode="&#xbc;" horiz-adv-x="1618" d="M44 1106v116h16q76 0 144 44q34 23 86 99h125v-819h-191v560h-180zM389 0l681 1365h159l-679 -1365h-161zM1084 160v183l233 476h201v-523h89v-136h-89v-160h-190v160h-244zM1210 296h118v164q0 42 6 101q-22 -62 -50 -118z" />
<glyph unicode="&#xbd;" horiz-adv-x="1618" d="M69 1106v116h16q76 0 144 44q34 23 86 99h125v-819h-191v560h-180zM389 0l681 1365h159l-679 -1365h-161zM1078 0v131q74 69 149 167q83 105 116 183q23 53 23 120q0 43 -15.5 69t-40.5 26q-52 0 -52 -102q0 -54 17 -137l-175 7q-20 51 -20 138q0 88 35 143q52 80 198 80 q104 0 165 -45q87 -65 87 -185q0 -138 -117 -276q-13 -15 -142 -145h252v-174h-480z" />
<glyph unicode="&#xbe;" horiz-adv-x="1618" d="M26 732q0 50 18 107l172 6l-3 -26q-8 -53 -8 -81q0 -64 53 -64q31 0 43 33q10 29 10 93q0 152 -76 152q-30 0 -72 -22l-74 83l183 195h-208v157h426v-142l-147 -157q89 -16 132 -82.5t43 -190.5q0 -147 -74 -207q-62 -50 -182 -50q-236 0 -236 196zM389 0l681 1365h158 l-679 -1365h-160zM1084 160v183l233 476h200v-523h90v-136h-90v-160h-190v160h-243zM1209 296h118v164q0 42 6 101q-22 -62 -50 -118z" />
<glyph unicode="&#xbf;" horiz-adv-x="769" d="M41 87q0 200 73 293q58 74 178 74q75 0 152 -71v207h176v-476h-176q-2 55 -9 85q-13 58 -56 58q-40 0 -55 -53q-8 -31 -8 -117q0 -181 23 -234q16 -39 56 -39q68 0 65 118q-1 33 -1 44v24h205q10 -78 10 -130q0 -131 -87 -199q-65 -50 -187 -50q-189 0 -265 95 q-94 118 -94 371zM398 673v331h266v-331h-266z" />
<glyph unicode="&#xc0;" horiz-adv-x="828" d="M-14 0l264 1365h308l284 -1365h-323l-35 244h-200l-34 -244h-264zM140 1680h267l90 -217h-136zM310 430h147l-75 512z" />
<glyph unicode="&#xc1;" horiz-adv-x="828" d="M-14 0l264 1365h308l284 -1365h-323l-35 244h-200l-34 -244h-264zM310 430h147l-75 512zM331 1463l90 217h267l-221 -217h-136z" />
<glyph unicode="&#xc2;" horiz-adv-x="828" d="M-14 0l264 1365h308l284 -1365h-323l-35 244h-200l-34 -244h-264zM135 1447l207 250h144l207 -250h-97l-183 98l-176 -98h-102zM310 430h147l-75 512z" />
<glyph unicode="&#xc3;" horiz-adv-x="828" d="M-14 0l264 1365h308l284 -1365h-323l-35 244h-200l-34 -244h-264zM143 1454q7 136 46 186q41 52 105 52q42 0 98 -24q16 -6 103 -51q32 -16 61 -16q59 0 73 89h56q0 -68 -22 -126q-36 -95 -114 -95q-59 0 -158 51q-89 46 -116 46q-34 0 -57 -44q-13 -26 -13 -54 q0 -5 1 -14h-63zM310 430h147l-75 512z" />
<glyph unicode="&#xc4;" horiz-adv-x="828" d="M-14 0l264 1365h308l284 -1365h-323l-35 244h-200l-34 -244h-264zM154 1514v194h194v-194h-194zM310 430h147l-75 512zM482 1514v194h192v-194h-192z" />
<glyph unicode="&#xc5;" horiz-adv-x="828" d="M-14 0l264 1365h308l284 -1365h-323l-35 244h-200l-34 -244h-264zM243 1617q0 73 50 122q51 50 123 50q68 0 118 -50t50 -121t-50 -121q-49 -50 -120 -50q-72 0 -121 50q-50 50 -50 120zM310 430h147l-75 512zM336 1618q0 -32 23 -55q22 -23 55 -23q32 0 54 23 q23 22 23 55t-23 55q-23 23 -55 23t-54 -23q-23 -23 -23 -55z" />
<glyph unicode="&#xc6;" horiz-adv-x="1300" d="M-14 0l397 1365h851v-255h-351v-294h316v-247h-316v-302h383v-267h-700v267h-228l-73 -267h-279zM388 453h178v657z" />
<glyph unicode="&#xc7;" d="M55 571q0 336 30 485q37 179 131 253q101 81 269 81q183 0 281 -94q88 -85 88 -270q0 -87 -16 -192l-271 -11q11 86 11 137q0 116 -26 170q-19 38 -66 38q-57 0 -79 -58q-29 -74 -29 -399q0 -344 36 -425q23 -53 87 -53q53 0 78 43q22 37 22 141q0 106 -12 200l265 -11 q18 -92 18 -213q0 -108 -18 -176t-61 -122q-59 -73 -149 -98q-38 -10 -90 -18l-54 -86q34 13 60 13q62 0 96 -43q34 -44 34 -109q0 -94 -68 -144q-58 -44 -137 -44q-99 0 -149 61q-24 29 -24 72q0 23 11 57h135q-4 -30 -4 -44q0 -45 46 -45q56 0 56 87q0 82 -56 82 q-27 0 -50 -26h-89l93 169q-135 11 -200 47q-114 63 -160 200q-39 115 -39 345z" />
<glyph unicode="&#xc8;" horiz-adv-x="849" d="M89 0v1365h705v-264h-392v-291h343v-246h-343v-308h413v-256h-726zM171 1680h267l90 -217h-136z" />
<glyph unicode="&#xc9;" horiz-adv-x="849" d="M89 0v1365h705v-264h-392v-291h343v-246h-343v-308h413v-256h-726zM342 1463l90 217h267l-221 -217h-136z" />
<glyph unicode="&#xca;" horiz-adv-x="849" d="M89 0v1365h705v-264h-392v-291h343v-246h-343v-308h413v-256h-726zM166 1447l207 250h144l207 -250h-97l-183 98l-176 -98h-102z" />
<glyph unicode="&#xcb;" horiz-adv-x="849" d="M89 0v1365h705v-264h-392v-291h343v-246h-343v-308h413v-256h-726zM185 1514v194h194v-194h-194zM513 1514v194h192v-194h-192z" />
<glyph unicode="&#xcc;" horiz-adv-x="493" d="M-28 1680h267l90 -217h-136zM88 0v1365h315v-1365h-315z" />
<glyph unicode="&#xcd;" horiz-adv-x="493" d="M89 0v1365h315v-1365h-315zM164 1463l90 217h267l-221 -217h-136z" />
<glyph unicode="&#xce;" horiz-adv-x="493" d="M0 1447l174 250h145l173 -250h-97l-149 98l-144 -98h-102zM88 0v1365h315v-1365h-315z" />
<glyph unicode="&#xcf;" horiz-adv-x="493" d="M3 1514v194h194v-194h-194zM88 0v1365h315v-1365h-315zM297 1514v194h192v-194h-192z" />
<glyph unicode="&#xd0;" horiz-adv-x="984" d="M-5 654v193h93v518h337q140 0 204 -19q126 -37 199 -168q47 -83 74.5 -229.5t27.5 -314.5q0 -421 -150 -560q-55 -51 -143 -66q-49 -8 -128 -8h-421v654h-93zM400 236q28 -1 42 -1q76 0 110 34q31 30 44 107t13 227q0 310 -32 425q-24 89 -81 109q-26 9 -67 9h-29v-299 h101v-193h-101v-418z" />
<glyph unicode="&#xd1;" horiz-adv-x="952" d="M89 0v1365h252l264 -595v595h259v-1365h-211l-312 717v-717h-252zM206 1454q7 136 46 186q41 52 105 52q42 0 98 -24q16 -6 103 -51q32 -16 61 -16q59 0 73 89h56q0 -68 -22 -126q-36 -95 -114 -95q-59 0 -158 51q-89 46 -116 46q-34 0 -57 -44q-13 -26 -13 -54 q0 -5 1 -14h-63z" />
<glyph unicode="&#xd2;" horiz-adv-x="965" d="M54 600q0 325 52 489q93 294 381 294q153 0 265 -98q93 -81 128 -238q31 -135 31 -415q0 -261 -44 -382q-100 -277 -383 -277q-165 0 -266 86q-96 81 -128 208q-36 146 -36 333zM209 1680h267l90 -217h-136zM378 676q0 -340 20 -400t82 -60q61 0 82 63q26 77 26 433 q0 292 -10 354q-15 100 -93 100q-52 0 -74 -43q-18 -35 -25.5 -137.5t-7.5 -309.5z" />
<glyph unicode="&#xd3;" horiz-adv-x="965" d="M54 600q0 325 52 489q93 294 381 294q153 0 265 -98q93 -81 128 -238q31 -135 31 -415q0 -261 -44 -382q-100 -277 -383 -277q-165 0 -266 86q-96 81 -128 208q-36 146 -36 333zM378 676q0 -340 20 -400t82 -60q61 0 82 63q26 77 26 433q0 292 -10 354q-15 100 -93 100 q-52 0 -74 -43q-18 -35 -25.5 -137.5t-7.5 -309.5zM400 1463l90 217h267l-221 -217h-136z" />
<glyph unicode="&#xd4;" horiz-adv-x="965" d="M54 600q0 325 52 489q93 294 381 294q153 0 265 -98q93 -81 128 -238q31 -135 31 -415q0 -261 -44 -382q-100 -277 -383 -277q-165 0 -266 86q-96 81 -128 208q-36 146 -36 333zM204 1447l207 250h144l207 -250h-97l-183 98l-176 -98h-102zM378 676q0 -340 20 -400 t82 -60q61 0 82 63q26 77 26 433q0 292 -10 354q-15 100 -93 100q-52 0 -74 -43q-18 -35 -25.5 -137.5t-7.5 -309.5z" />
<glyph unicode="&#xd5;" horiz-adv-x="965" d="M54 600q0 325 52 489q93 294 381 294q153 0 265 -98q93 -81 128 -238q31 -135 31 -415q0 -261 -44 -382q-100 -277 -383 -277q-165 0 -266 86q-96 81 -128 208q-36 146 -36 333zM212 1454q7 136 46 186q41 52 105 52q42 0 98 -24q16 -6 103 -51q32 -16 61 -16q59 0 73 89 h56q0 -68 -22 -126q-36 -95 -114 -95q-59 0 -158 51q-89 46 -116 46q-34 0 -57 -44q-13 -26 -13 -54q0 -5 1 -14h-63zM378 676q0 -340 20 -400t82 -60q61 0 82 63q26 77 26 433q0 292 -10 354q-15 100 -93 100q-52 0 -74 -43q-18 -35 -25.5 -137.5t-7.5 -309.5z" />
<glyph unicode="&#xd6;" horiz-adv-x="965" d="M54 600q0 325 52 489q93 294 381 294q153 0 265 -98q93 -81 128 -238q31 -135 31 -415q0 -261 -44 -382q-100 -277 -383 -277q-165 0 -266 86q-96 81 -128 208q-36 146 -36 333zM223 1514v194h194v-194h-194zM378 676q0 -340 20 -400t82 -60q61 0 82 63q26 77 26 433 q0 292 -10 354q-15 100 -93 100q-52 0 -74 -43q-18 -35 -25.5 -137.5t-7.5 -309.5zM551 1514v194h192v-194h-192z" />
<glyph unicode="&#xd7;" d="M94 488l208 208l-208 208l154 155l209 -208l208 208l154 -155l-208 -208l208 -208l-154 -154l-208 208l-209 -208z" />
<glyph unicode="&#xd8;" horiz-adv-x="965" d="M30 -123l121 252q-38 61 -57 112q-40 109 -40 346q0 343 52 504q94 292 374 292q76 0 139 -23q29 -10 83 -38l70 158h138l-111 -249q58 -84 84 -220.5t26 -355.5q0 -293 -52 -425q-102 -257 -378 -257q-129 0 -232 62l-75 -158h-142zM372 311q10 -44 32 -66 q33 -32 74 -32q29 0 53 21.5t33 55.5q23 92 23 351q0 39 -2 122zM372 618l214 447q-13 102 -100 102q-51 0 -76 -43t-26 -135q-1 -132 -12 -371z" />
<glyph unicode="&#xd9;" horiz-adv-x="980" d="M82 487v878h323v-934q0 -113 29 -146q27 -31 67 -31q50 0 77 46q16 29 16 126v939h304v-885q0 -186 -13 -241q-29 -125 -142 -197q-109 -69 -254 -69q-178 0 -297 100q-91 78 -105 214q-5 48 -5 200zM216 1680h267l90 -217h-136z" />
<glyph unicode="&#xda;" horiz-adv-x="980" d="M82 487v878h323v-934q0 -113 29 -146q27 -31 67 -31q50 0 77 46q16 29 16 126v939h304v-885q0 -186 -13 -241q-29 -125 -142 -197q-109 -69 -254 -69q-178 0 -297 100q-91 78 -105 214q-5 48 -5 200zM407 1463l90 217h267l-221 -217h-136z" />
<glyph unicode="&#xdb;" horiz-adv-x="980" d="M82 487v878h323v-934q0 -113 29 -146q27 -31 67 -31q50 0 77 46q16 29 16 126v939h304v-885q0 -186 -13 -241q-29 -125 -142 -197q-109 -69 -254 -69q-178 0 -297 100q-91 78 -105 214q-5 48 -5 200zM211 1447l207 250h144l207 -250h-97l-183 98l-176 -98h-102z" />
<glyph unicode="&#xdc;" horiz-adv-x="980" d="M82 487v878h323v-934q0 -113 29 -146q27 -31 67 -31q50 0 77 46q16 29 16 126v939h304v-885q0 -186 -13 -241q-29 -125 -142 -197q-109 -69 -254 -69q-178 0 -297 100q-91 78 -105 214q-5 48 -5 200zM230 1514v194h194v-194h-194zM558 1514v194h192v-194h-192z" />
<glyph unicode="&#xdd;" horiz-adv-x="871" d="M-14 1365h303l172 -516l152 516h271l-282 -844v-521h-313v521zM352 1463l90 217h267l-221 -217h-136z" />
<glyph unicode="&#xde;" horiz-adv-x="937" d="M89 0v1365h306v-191h113q83 0 126 -8t83 -30q195 -111 195 -413q0 -212 -82 -304q-85 -96 -251 -96h-184v-323h-306zM395 530h66q70 0 93 21q43 39 43 192q0 144 -39 190q-29 33 -102 33h-61v-436z" />
<glyph unicode="&#xdf;" horiz-adv-x="917" d="M82 0v1007q0 109 17 175t56 110q79 89 298 89q213 0 304 -92q86 -87 86 -236q0 -128 -63 -207q-26 -33 -87 -58q45 -22 69 -52q101 -124 101 -355q0 -230 -90 -327q-51 -54 -180 -54h-182v241q68 -1 100 20q64 42 64 187t-39 192q-25 29 -80 29q-10 0 -25 -1v212 q12 -1 20 -1q107 0 107 147q0 164 -102 164q-53 0 -75 -39q-20 -37 -20 -125v-1026h-279z" />
<glyph unicode="&#xe0;" horiz-adv-x="886" d="M48 276q0 167 91 242q54 45 201 77q112 24 140 54q26 28 26 89q0 122 -90 122q-37 0 -67 -27q-28 -26 -28 -85q0 -37 14 -80h-242q-17 85 -17 129q0 96 73 152q94 72 271 72q148 0 252 -48q97 -44 109 -135q3 -28 3 -122v-431q0 -58 18 -77q15 -16 45 -16q8 0 29 4v-177 q-79 -44 -166 -44q-106 0 -155 65q-14 18 -44 76q-74 -143 -218 -143q-98 0 -162 67q-83 87 -83 236zM169 1358h267l90 -217h-136zM333 283q0 -58 25 -82q20 -20 46 -20q35 0 66 39q41 50 41 135v155q-29 -18 -59 -31q-54 -24 -69 -37q-50 -42 -50 -159z" />
<glyph unicode="&#xe1;" horiz-adv-x="886" d="M48 276q0 167 91 242q54 45 201 77q112 24 140 54q26 28 26 89q0 122 -90 122q-37 0 -67 -27q-28 -26 -28 -85q0 -37 14 -80h-242q-17 85 -17 129q0 96 73 152q94 72 271 72q148 0 252 -48q97 -44 109 -135q3 -28 3 -122v-431q0 -58 18 -77q15 -16 45 -16q8 0 29 4v-177 q-79 -44 -166 -44q-106 0 -155 65q-14 18 -44 76q-74 -143 -218 -143q-98 0 -162 67q-83 87 -83 236zM333 283q0 -58 25 -82q20 -20 46 -20q35 0 66 39q41 50 41 135v155q-29 -18 -59 -31q-54 -24 -69 -37q-50 -42 -50 -159zM360 1141l90 217h267l-221 -217h-136z" />
<glyph unicode="&#xe2;" horiz-adv-x="886" d="M48 276q0 167 91 242q54 45 201 77q112 24 140 54q26 28 26 89q0 122 -90 122q-37 0 -67 -27q-28 -26 -28 -85q0 -37 14 -80h-242q-17 85 -17 129q0 96 73 152q94 72 271 72q148 0 252 -48q97 -44 109 -135q3 -28 3 -122v-431q0 -58 18 -77q15 -16 45 -16q8 0 29 4v-177 q-79 -44 -166 -44q-106 0 -155 65q-14 18 -44 76q-74 -143 -218 -143q-98 0 -162 67q-83 87 -83 236zM164 1125l207 250h144l207 -250h-97l-183 97l-176 -97h-102zM333 283q0 -58 25 -82q20 -20 46 -20q35 0 66 39q41 50 41 135v155q-29 -18 -59 -31q-54 -24 -69 -37 q-50 -42 -50 -159z" />
<glyph unicode="&#xe3;" horiz-adv-x="886" d="M48 276q0 167 91 242q54 45 201 77q112 24 140 54q26 28 26 89q0 122 -90 122q-37 0 -67 -27q-28 -26 -28 -85q0 -37 14 -80h-242q-17 85 -17 129q0 96 73 152q94 72 271 72q148 0 252 -48q97 -44 109 -135q3 -28 3 -122v-431q0 -58 18 -77q15 -16 45 -16q8 0 29 4v-177 q-79 -44 -166 -44q-106 0 -155 65q-14 18 -44 76q-74 -143 -218 -143q-98 0 -162 67q-83 87 -83 236zM172 1132q7 136 46 185q41 53 104 53q41 0 99 -24q16 -6 103 -51q32 -16 61 -16q59 0 73 89h56q0 -68 -22 -126q-36 -95 -114 -95q-60 0 -158 51q-88 46 -116 46 q-34 0 -57 -44q-13 -26 -13 -54q0 -5 1 -14h-63zM333 283q0 -58 25 -82q20 -20 46 -20q35 0 66 39q41 50 41 135v155q-29 -18 -59 -31q-54 -24 -69 -37q-50 -42 -50 -159z" />
<glyph unicode="&#xe4;" horiz-adv-x="886" d="M48 276q0 167 91 242q54 45 201 77q112 24 140 54q26 28 26 89q0 122 -90 122q-37 0 -67 -27q-28 -26 -28 -85q0 -37 14 -80h-242q-17 85 -17 129q0 96 73 152q94 72 271 72q148 0 252 -48q97 -44 109 -135q3 -28 3 -122v-431q0 -58 18 -77q15 -16 45 -16q8 0 29 4v-177 q-79 -44 -166 -44q-106 0 -155 65q-14 18 -44 76q-74 -143 -218 -143q-98 0 -162 67q-83 87 -83 236zM183 1172v193h195v-193h-195zM333 283q0 -58 25 -82q20 -20 46 -20q35 0 66 39q41 50 41 135v155q-29 -18 -59 -31q-54 -24 -69 -37q-50 -42 -50 -159zM508 1172v193h195 v-193h-195z" />
<glyph unicode="&#xe5;" horiz-adv-x="886" d="M48 276q0 167 91 242q54 45 201 77q112 24 140 54q26 28 26 89q0 122 -90 122q-37 0 -67 -27q-28 -26 -28 -85q0 -37 14 -80h-242q-17 85 -17 129q0 96 73 152q94 72 271 72q148 0 252 -48q97 -44 109 -135q3 -28 3 -122v-431q0 -58 18 -77q15 -16 45 -16q8 0 29 4v-177 q-79 -44 -166 -44q-106 0 -155 65q-14 18 -44 76q-74 -143 -218 -143q-98 0 -162 67q-83 87 -83 236zM279 1275q0 71 48 117q49 48 118 48q66 0 114 -48q48 -47 48 -116t-48 -116q-47 -48 -116 -48t-116 48q-48 47 -48 115zM333 283q0 -58 25 -82q20 -20 46 -20q35 0 66 39 q41 50 41 135v155q-29 -18 -59 -31q-54 -24 -69 -37q-50 -42 -50 -159zM372 1276q0 -30 21 -50q20 -21 50 -21t50 21q21 20 21 50t-21 50q-21 21 -51 21q-29 0 -49 -21q-21 -20 -21 -50z" />
<glyph unicode="&#xe6;" horiz-adv-x="1245" d="M48 280q0 153 77 229q35 34 81 50q52 18 122 31q108 19 136 46q29 30 29 102q0 119 -89 119q-96 0 -96 -109q0 -27 9 -74h-232q-11 55 -11 95q0 98 46 151q88 101 279 101q115 0 187 -43q24 -14 54 -43q57 52 105 68q56 18 123 18q247 0 303 -264q28 -133 27 -327h-440 q-1 -125 6 -171q13 -84 101 -84q60 0 85 49q18 35 18 74q0 11 -3 34h218q11 -52 11 -92q0 -154 -112 -217q-90 -50 -224 -50q-114 0 -186 41q-39 22 -85 84q-54 -66 -96 -89q-64 -36 -151 -36q-149 0 -228 92q-64 74 -64 215zM320 296q0 -117 76 -117q97 0 97 177v151 q-32 -16 -91 -39q-82 -32 -82 -172zM762 567h184q-11 158 -20 198q-17 80 -77 80q-63 0 -77 -98q-10 -70 -10 -154v-26z" />
<glyph unicode="&#xe7;" horiz-adv-x="806" d="M47 463q0 244 56 364q93 198 325 198q143 0 232 -77q95 -84 95 -240q0 -46 -10 -112l-242 -16q9 52 9 105q0 151 -84 151q-42 0 -60 -39q-35 -76 -35 -328q0 -182 30 -243q24 -50 78 -50q95 0 95 163q0 44 -8 109l227 -10q17 -72 17 -140q0 -108 -37 -177t-116 -111 q-55 -28 -127 -31l-54 -86q35 14 61 14q62 0 96 -43q34 -44 34 -110q0 -93 -68 -144q-58 -44 -137 -44q-100 0 -150 61q-24 29 -24 72q0 24 11 57h135q-4 -29 -4 -45q0 -44 46 -44q57 0 57 88q0 81 -57 81q-27 0 -50 -26h-89l93 169q-85 2 -138 26q-103 48 -157 152 q-50 98 -50 306z" />
<glyph unicode="&#xe8;" horiz-adv-x="821" d="M48 477q0 263 76 383q59 94 158 135q70 28 142 28q92 0 168 -42q111 -63 147 -216q31 -133 31 -260q0 -23 -2 -71h-432q1 -140 9 -172q23 -81 103 -81q96 0 96 111q0 23 -2 62h226q2 -35 3 -45q3 -42 3 -70q0 -64 -29.5 -120t-79.5 -87q-94 -59 -242 -59q-203 0 -296 115 q-79 99 -79 389zM137 1358h267l90 -217h-136zM337 586h169q1 15 1 20q0 119 -29 196q-16 43 -60 43q-58 0 -72 -95q-6 -40 -9 -164z" />
<glyph unicode="&#xe9;" horiz-adv-x="821" d="M48 477q0 263 76 383q59 94 158 135q70 28 142 28q92 0 168 -42q111 -63 147 -216q31 -133 31 -260q0 -23 -2 -71h-432q1 -140 9 -172q23 -81 103 -81q96 0 96 111q0 23 -2 62h226q2 -35 3 -45q3 -42 3 -70q0 -64 -29.5 -120t-79.5 -87q-94 -59 -242 -59q-203 0 -296 115 q-79 99 -79 389zM328 1141l90 217h267l-221 -217h-136zM337 586h169q1 15 1 20q0 119 -29 196q-16 43 -60 43q-58 0 -72 -95q-6 -40 -9 -164z" />
<glyph unicode="&#xea;" horiz-adv-x="821" d="M48 477q0 263 76 383q59 94 158 135q70 28 142 28q92 0 168 -42q111 -63 147 -216q31 -133 31 -260q0 -23 -2 -71h-432q1 -140 9 -172q23 -81 103 -81q96 0 96 111q0 23 -2 62h226q2 -35 3 -45q3 -42 3 -70q0 -64 -29.5 -120t-79.5 -87q-94 -59 -242 -59q-203 0 -296 115 q-79 99 -79 389zM132 1125l207 250h144l207 -250h-97l-183 97l-176 -97h-102zM337 586h169q1 15 1 20q0 119 -29 196q-16 43 -60 43q-58 0 -72 -95q-6 -40 -9 -164z" />
<glyph unicode="&#xeb;" horiz-adv-x="821" d="M48 477q0 263 76 383q59 94 158 135q70 28 142 28q92 0 168 -42q111 -63 147 -216q31 -133 31 -260q0 -23 -2 -71h-432q1 -140 9 -172q23 -81 103 -81q96 0 96 111q0 23 -2 62h226q2 -35 3 -45q3 -42 3 -70q0 -64 -29.5 -120t-79.5 -87q-94 -59 -242 -59q-203 0 -296 115 q-79 99 -79 389zM151 1172v193h195v-193h-195zM337 586h169q1 15 1 20q0 119 -29 196q-16 43 -60 43q-58 0 -72 -95q-6 -40 -9 -164zM476 1172v193h195v-193h-195z" />
<glyph unicode="&#xec;" horiz-adv-x="451" d="M-49 1358h267l90 -217h-136zM82 0v1004h287v-1004h-287z" />
<glyph unicode="&#xed;" horiz-adv-x="451" d="M82 0v1004h287v-1004h-287zM142 1141l90 217h267l-221 -217h-136z" />
<glyph unicode="&#xee;" horiz-adv-x="451" d="M1 1125l152 250h145l151 -250h-98l-126 97l-122 -97h-102zM82 0v1004h287v-1004h-287z" />
<glyph unicode="&#xef;" horiz-adv-x="451" d="M1 1172v193h185v-193h-185zM82 0v1004h287v-1004h-287zM264 1172v193h185v-193h-185z" />
<glyph unicode="&#xf0;" horiz-adv-x="851" d="M48 1305l28 82q134 -18 288 -92l202 135l56 -90l-164 -103q166 -117 247 -271q99 -188 99 -515q0 -220 -71 -339q-82 -139 -294 -139q-97 0 -175.5 31.5t-120.5 88.5q-93 124 -93 388q0 308 135 447q64 65 155 82q27 4 76 6q-30 61 -95 132l-189 -124l-56 88l167 103 q-64 49 -195 90zM341 480q0 -122 10 -215t77 -93q71 0 78 103q6 82 6 178t-7 211q-3 49 -10 105t-11 56q-14 2 -25 2q-67 0 -90 -41q-28 -49 -28 -306z" />
<glyph unicode="&#xf1;" horiz-adv-x="890" d="M82 0v1004h283v-144q40 78 79 114q58 53 138 53q111 0 175 -89q58 -81 58 -241v-697h-281v580q0 134 -21 165q-22 32 -51 32q-20 0 -42 -17t-33 -41q-22 -51 -22 -157v-562h-283zM174 1132q7 136 46 185q41 53 104 53q41 0 99 -24q16 -6 103 -51q32 -16 61 -16 q59 0 73 89h56q0 -68 -22 -126q-36 -95 -114 -95q-60 0 -158 51q-88 46 -116 46q-34 0 -57 -44q-13 -26 -13 -54q0 -5 1 -14h-63z" />
<glyph unicode="&#xf2;" horiz-adv-x="848" d="M48 480q0 166 49 302q54 148 159 201q69 35 178 35q367 0 367 -561q0 -255 -87 -371q-85 -113 -274 -113q-216 0 -306 127q-41 57 -64 164q-22 103 -22 216zM150 1358h267l90 -217h-136zM340 502q0 -225 20 -284q17 -48 68 -48q50 0 66 47q17 49 17 248q0 259 -29 320 q-18 40 -58 40q-38 0 -57 -39q-27 -58 -27 -284z" />
<glyph unicode="&#xf3;" horiz-adv-x="848" d="M48 480q0 166 49 302q54 148 159 201q69 35 178 35q367 0 367 -561q0 -255 -87 -371q-85 -113 -274 -113q-216 0 -306 127q-41 57 -64 164q-22 103 -22 216zM340 502q0 -225 20 -284q17 -48 68 -48q50 0 66 47q17 49 17 248q0 259 -29 320q-18 40 -58 40q-38 0 -57 -39 q-27 -58 -27 -284zM341 1141l90 217h267l-221 -217h-136z" />
<glyph unicode="&#xf4;" horiz-adv-x="848" d="M48 480q0 166 49 302q54 148 159 201q69 35 178 35q367 0 367 -561q0 -255 -87 -371q-85 -113 -274 -113q-216 0 -306 127q-41 57 -64 164q-22 103 -22 216zM145 1125l207 250h144l207 -250h-97l-183 97l-176 -97h-102zM340 502q0 -225 20 -284q17 -48 68 -48q50 0 66 47 q17 49 17 248q0 259 -29 320q-18 40 -58 40q-38 0 -57 -39q-27 -58 -27 -284z" />
<glyph unicode="&#xf5;" horiz-adv-x="848" d="M48 480q0 166 49 302q54 148 159 201q69 35 178 35q367 0 367 -561q0 -255 -87 -371q-85 -113 -274 -113q-216 0 -306 127q-41 57 -64 164q-22 103 -22 216zM153 1132q7 136 46 185q41 53 104 53q41 0 99 -24q16 -6 103 -51q32 -16 61 -16q59 0 73 89h56q0 -68 -22 -126 q-36 -95 -114 -95q-60 0 -158 51q-88 46 -116 46q-34 0 -57 -44q-13 -26 -13 -54q0 -5 1 -14h-63zM340 502q0 -225 20 -284q17 -48 68 -48q50 0 66 47q17 49 17 248q0 259 -29 320q-18 40 -58 40q-38 0 -57 -39q-27 -58 -27 -284z" />
<glyph unicode="&#xf6;" horiz-adv-x="848" d="M48 480q0 166 49 302q54 148 159 201q69 35 178 35q367 0 367 -561q0 -255 -87 -371q-85 -113 -274 -113q-216 0 -306 127q-41 57 -64 164q-22 103 -22 216zM164 1172v193h195v-193h-195zM340 502q0 -225 20 -284q17 -48 68 -48q50 0 66 47q17 49 17 248q0 259 -29 320 q-18 40 -58 40q-38 0 -57 -39q-27 -58 -27 -284zM489 1172v193h195v-193h-195z" />
<glyph unicode="&#xf7;" d="M95 588v218h724v-218h-724zM348 212v273h218v-273h-218zM348 908v273h218v-273h-218z" />
<glyph unicode="&#xf8;" horiz-adv-x="848" d="M48 481q0 275 114 426q84 111 266 111q64 0 104 -12q26 -8 76 -32l31 56h117l-66 -128q52 -76 74 -151q37 -127 37 -300q0 -273 -107 -389q-83 -89 -257 -89q-69 0 -119 13q-30 7 -86 30l-38 -67h-119l71 137q-37 39 -58 106q-40 124 -40 289zM339 462l157 294 q-14 69 -69 69q-56 0 -75 -86q-10 -48 -13 -277zM346 241q24 -72 79 -72q50 0 67 41q20 47 20 199q0 45 -5 137z" />
<glyph unicode="&#xf9;" horiz-adv-x="888" d="M75 262v742h280v-642q0 -139 73 -139q96 0 96 212v569h282v-1004h-282v135q-39 -71 -73 -104q-60 -58 -148 -58q-96 0 -163 81q-37 43 -50 86q-15 50 -15 122zM170 1358h267l90 -217h-136z" />
<glyph unicode="&#xfa;" horiz-adv-x="888" d="M75 262v742h280v-642q0 -139 73 -139q96 0 96 212v569h282v-1004h-282v135q-39 -71 -73 -104q-60 -58 -148 -58q-96 0 -163 81q-37 43 -50 86q-15 50 -15 122zM361 1141l90 217h267l-221 -217h-136z" />
<glyph unicode="&#xfb;" horiz-adv-x="888" d="M75 262v742h280v-642q0 -139 73 -139q96 0 96 212v569h282v-1004h-282v135q-39 -71 -73 -104q-60 -58 -148 -58q-96 0 -163 81q-37 43 -50 86q-15 50 -15 122zM165 1125l207 250h144l207 -250h-97l-183 97l-176 -97h-102z" />
<glyph unicode="&#xfc;" horiz-adv-x="888" d="M75 262v742h280v-642q0 -139 73 -139q96 0 96 212v569h282v-1004h-282v135q-39 -71 -73 -104q-60 -58 -148 -58q-96 0 -163 81q-37 43 -50 86q-15 50 -15 122zM184 1172v193h195v-193h-195zM509 1172v193h195v-193h-195z" />
<glyph unicode="&#xfd;" horiz-adv-x="768" d="M-8 1004h281l148 -629l101 629h255l-275 -1152q-24 -98 -86 -150q-61 -51 -181 -51q-115 0 -178 54q-54 47 -54 146q0 62 22 135l173 11q-19 -70 -19 -99t19 -46q15 -14 33 -14q25 0 40 22q19 27 34 109zM301 1141l90 217h267l-221 -217h-136z" />
<glyph unicode="&#xfe;" horiz-adv-x="884" d="M82 -330v1695h282v-518q29 99 74 137q48 42 116 42q119 0 190 -116q92 -149 92 -440q0 -483 -269 -483q-83 0 -133 49q-40 40 -70 140v-506h-282zM369 540q0 -214 36 -293q21 -46 63 -46q20 0 38 15.5t25 38.5q18 56 18 210q0 114 -9 207.5t-24 122.5q-16 33 -53 33 q-94 0 -94 -288z" />
<glyph unicode="&#xff;" horiz-adv-x="768" d="M-8 1004h281l148 -629l101 629h255l-275 -1152q-24 -98 -86 -150q-61 -51 -181 -51q-115 0 -178 54q-54 47 -54 146q0 62 22 135l173 11q-19 -70 -19 -99t19 -46q15 -14 33 -14q25 0 40 22q19 27 34 109zM124 1172v193h195v-193h-195zM449 1172v193h195v-193h-195z" />
<glyph unicode="&#x152;" horiz-adv-x="1330" d="M55 588q0 342 52 509q93 294 387 294q68 0 130 -26h648v-260h-361v-289h308v-249h-308v-307h385v-260h-660q-64 -27 -150 -27q-169 0 -266 83q-101 87 -131 210q-34 138 -34 322zM381 679q0 -317 25 -399q18 -58 75 -58q59 0 83 56q16 38 22.5 141.5t6.5 329.5 q0 264 -9 321q-17 103 -97 103q-49 0 -69 -43q-37 -78 -37 -451z" />
<glyph unicode="&#x153;" horiz-adv-x="1280" d="M47 464q0 173 50 319q81 235 323 235q137 0 231 -79q59 48 107 64q59 20 131 20q171 0 253 -122q51 -76 74 -204q17 -99 17 -187q0 -24 -2 -74h-434q1 -139 9 -173q19 -77 101 -77q99 0 99 124q0 19 -4 45h222q9 -50 9 -83q0 -138 -67 -205q-92 -94 -284 -94 q-139 0 -231 73q-56 -37 -87 -49q-58 -24 -143 -24q-203 0 -290 127q-40 59 -63 162q-21 97 -21 202zM340 472q0 -203 21 -258q17 -45 63 -45q49 0 68 47q19 50 19 234q0 267 -27 329q-19 41 -57 41t-56 -40q-31 -66 -31 -308zM798 588h168q1 17 1 23q0 46 -9 106t-20 88 q-16 41 -58 41q-20 0 -39 -14.5t-25 -35.5q-18 -55 -18 -187v-21z" />
<glyph unicode="&#x178;" horiz-adv-x="871" d="M-14 1365h303l172 -516l152 516h271l-282 -844v-521h-313v521zM175 1514v194h194v-194h-194zM503 1514v194h192v-194h-192z" />
<glyph unicode="&#x2c6;" horiz-adv-x="1024" d="M233 1125l207 250h144l207 -250h-97l-183 97l-176 -97h-102z" />
<glyph unicode="&#x2dc;" horiz-adv-x="1024" d="M241 1132q7 136 46 185q41 53 104 53q41 0 99 -24q16 -6 103 -51q32 -16 61 -16q59 0 73 89h56q0 -68 -22 -126q-36 -95 -114 -95q-60 0 -158 51q-88 46 -116 46q-34 0 -57 -44q-13 -26 -13 -54q0 -5 1 -14h-63z" />
<glyph unicode="&#x2000;" horiz-adv-x="894" />
<glyph unicode="&#x2001;" horiz-adv-x="1789" />
<glyph unicode="&#x2002;" horiz-adv-x="894" />
<glyph unicode="&#x2003;" horiz-adv-x="1789" />
<glyph unicode="&#x2004;" horiz-adv-x="596" />
<glyph unicode="&#x2005;" horiz-adv-x="447" />
<glyph unicode="&#x2006;" horiz-adv-x="298" />
<glyph unicode="&#x2007;" horiz-adv-x="298" />
<glyph unicode="&#x2008;" horiz-adv-x="223" />
<glyph unicode="&#x2009;" horiz-adv-x="357" />
<glyph unicode="&#x200a;" horiz-adv-x="99" />
<glyph unicode="&#x2010;" horiz-adv-x="395" d="M0 409v219h395v-219h-395z" />
<glyph unicode="&#x2011;" horiz-adv-x="395" d="M0 409v219h395v-219h-395z" />
<glyph unicode="&#x2012;" horiz-adv-x="395" d="M0 409v219h395v-219h-395z" />
<glyph unicode="&#x2013;" horiz-adv-x="884" d="M75 409v219h733v-219h-733z" />
<glyph unicode="&#x2014;" horiz-adv-x="1185" d="M0 409v219h1185v-219h-1185z" />
<glyph unicode="&#x2018;" horiz-adv-x="375" d="M68 914v253q0 79 10 110q9 28 48 88h138q-72 -84 -73 -164h116v-287h-239z" />
<glyph unicode="&#x2019;" horiz-adv-x="375" d="M68 1078v287h239v-253q0 -79 -10 -110q-9 -28 -48 -88h-138q72 85 73 164h-116z" />
<glyph unicode="&#x201a;" horiz-adv-x="375" d="M68 0v287h239v-251q0 -82 -15 -121q-10 -26 -43 -79h-140q71 65 72 164h-113z" />
<glyph unicode="&#x201c;" horiz-adv-x="711" d="M68 915v252q0 73 11 111q12 35 48 87h136q-67 -76 -71 -163h115v-287h-239zM404 915v251q0 82 15 120q10 26 43 79h140q-71 -66 -72 -163h113v-287h-239z" />
<glyph unicode="&#x201d;" horiz-adv-x="711" d="M68 1078v287h239v-251q0 -82 -15 -120q-10 -26 -43 -79h-140q72 65 72 163h-113zM404 1078v287h239v-252q0 -73 -11 -111q-12 -36 -48 -87h-136q67 76 71 163h-115z" />
<glyph unicode="&#x201e;" horiz-adv-x="711" d="M68 0v287h239v-251q0 -82 -15 -121q-10 -26 -43 -79h-140q71 65 72 164h-113zM404 0v287h239v-252q0 -73 -11 -111q-12 -36 -48 -88h-136q67 76 71 164h-115z" />
<glyph unicode="&#x2022;" horiz-adv-x="1365" d="M437 682q0 105 72 175q74 72 177 72q99 0 171 -72q72 -71 72 -174t-72 -174q-71 -72 -174 -72t-174 72q-72 71 -72 173z" />
<glyph unicode="&#x2026;" horiz-adv-x="1297" d="M82 0v328h268v-328h-268zM514 0v328h268v-328h-268zM947 0v328h268v-328h-268z" />
<glyph unicode="&#x202f;" horiz-adv-x="357" />
<glyph unicode="&#x2039;" horiz-adv-x="417" d="M48 518l158 271h163l-156 -271l156 -269h-163z" />
<glyph unicode="&#x203a;" horiz-adv-x="416" d="M48 249l155 271l-155 269h162l158 -269l-158 -271h-162z" />
<glyph unicode="&#x205f;" horiz-adv-x="447" />
<glyph unicode="&#x2122;" horiz-adv-x="1338" d="M10 1197v168h535v-168h-163v-651h-212v651h-160zM587 546v819h259l83 -355l62 355h281v-819h-200v483l-88 -483h-131l-91 485v-485h-175z" />
<glyph unicode="&#x25fc;" horiz-adv-x="1004" d="M0 0v1005h1005v-1005h-1005z" />
</font>
</defs>
</svg>
